<svg width="14" height="14" viewBox="0 0 14 14" fill="none" xmlns="http://www.w3.org/2000/svg">
<path d="M0.249953 5.30312C0.248092 5.41714 0.280933 5.52904 0.344121 5.62397C0.407309 5.7189 0.497859 5.79239 0.603765 5.83468L6.00433 7.99524L8.16489 13.3964C8.20663 13.5008 8.27873 13.5904 8.37188 13.6535C8.46503 13.7165 8.57496 13.7502 8.68745 13.7502H8.69645C8.81038 13.7484 8.92107 13.712 9.01389 13.6459C9.1067 13.5799 9.17725 13.4871 9.2162 13.3801L13.7162 1.00506C13.753 0.904384 13.7603 0.795281 13.7372 0.690597C13.7142 0.585913 13.6616 0.490007 13.5859 0.414175C13.5101 0.338343 13.4142 0.285743 13.3096 0.262568C13.2049 0.239394 13.0958 0.246611 12.9951 0.28337L0.620078 4.78337C0.512959 4.82242 0.42022 4.89308 0.35413 4.98599C0.288039 5.0789 0.251712 5.18968 0.249953 5.30368V5.30312Z" fill="white"/>
</svg>
